<?xml version="1.0" encoding="UTF-8"?>
<svg width="363px" height="136px" viewBox="0 0 363 136" version="1.1" xmlns="http://www.w3.org/2000/svg" xmlns:xlink="http://www.w3.org/1999/xlink">
    <!-- Generator: Sketch 49.3 (51167) - http://www.bohemiancoding.com/sketch -->
    <title>Page 1</title>
    <desc>Created with Sketch.</desc>
    <defs></defs>
    <g id="Page-1" stroke="none" stroke-width="1" fill="none" fill-rule="evenodd">
        <g>
            <path d="M165.8458,119.4839 C165.8458,128.2409 158.7728,135.3409 150.0158,135.3979 L149.8198,135.3979 C123.6338,135.3979 102.3868,114.3189 102.0778,88.2169 L102.0778,16.2539 C102.0778,7.4689 109.2068,0.3399 118.0198,0.3399 C126.8048,0.3399 133.9338,7.4689 133.9338,16.2539 L133.9338,39.9139 L150.0158,39.9139 C158.7728,39.9699 165.8458,47.0709 165.8458,55.8279 C165.8458,64.6129 158.7168,71.7419 149.9318,71.7419 L133.9338,71.7419 L133.9338,88.2169 C133.9338,95.9169 140.3498,103.5419 150.1568,103.5419 C158.8288,103.6539 165.8458,110.7549 165.8458,119.4839" id="Fill-1" fill="#295588"></path>
            <path d="M362.6514,42.6084 C361.0804,43.1704 344.8804,47.8544 335.5394,67.1104 C332.5424,73.2894 330.9354,78.5344 330.9354,85.8594 L330.9354,119.3154 C330.9354,126.9214 325.1084,135.2294 315.0224,135.2294 C306.2094,135.2294 299.0804,128.1004 299.0804,119.3154 C299.0804,119.3154 299.1084,101.3104 299.1084,85.8594 C299.1084,60.3294 321.0564,39.9144 346.8224,39.9144 C352.3794,39.9144 357.7124,40.8684 362.6514,42.6084" id="Fill-3" fill="#295588"></path>
            <path d="M38.0025,135.5518 C21.7975,135.5528 0.0005,124.7168 0.0275,110.7688 C0.0275,101.9838 7.1565,94.8548 15.9415,94.8548 C18.3275,94.8548 21.1305,95.3008 33.3155,101.0298 C43.2005,105.6778 48.3025,100.4968 50.2955,97.0728 C54.2145,88.8838 50.0965,83.8328 47.4325,82.0288 C41.6435,78.1058 35.2895,77.8748 26.7755,74.8438 C12.6705,69.8218 0.0005,56.7678 0.0005,40.0968 C0.0005,-10.7832 77.2685,-8.2832 77.2685,20.0568 C77.2685,28.8418 69.5055,37.7798 58.0855,35.5898 C56.0545,35.2008 45.7305,32.2088 42.3245,31.6768 C37.3805,30.9048 33.9175,33.9168 33.4745,37.1228 C30.6305,57.7168 84.4415,44.4668 84.4415,92.3418 C84.4415,113.1268 67.8805,135.5518 38.0025,135.5518" id="Fill-5" fill="#295588"></path>
            <path d="M286.0489,43.604 C283.3099,48.365 283.0979,54.409 286.0419,59.509 C288.9869,64.608 294.3259,67.447 299.8199,67.455 C302.5589,62.694 302.7709,56.649 299.8259,51.55 C296.8829,46.451 291.5419,43.612 286.0489,43.604" id="Fill-7" fill="#295588"></path>
            <g id="Group" transform="translate(180.000000, 39.000000)">
                <path d="M63.3809,52.961 L48.1599,64.011 L32.9299,52.961 L32.9299,52.952 L38.7419,35.052 L57.5689,35.052 L63.3809,52.952 L63.3809,52.961 Z M95.7949,47 C94.9249,21.403 73.9019,0.914 48.0809,0.914 C21.7269,0.914 0.3669,22.301 0.3669,48.656 C0.3669,75.011 21.7269,96.398 48.0809,96.398 C55.4349,96.398 62.4229,94.742 68.6539,91.738 C71.5449,94.602 75.5299,96.398 79.9089,96.398 C88.6929,96.398 95.8229,89.269 95.8229,80.484 C95.8229,80.484 95.8229,47.533 95.7949,47 Z" id="Fill-9" fill="#295588"></path>
                <path d="M57.5596,35.0523 L38.7416,35.0523 L46.9726,9.7093 C47.3436,8.5693 48.9566,8.5693 49.3286,9.7093 L57.5596,35.0523 Z" id="Fill-11" fill="#EEC830"></path>
                <path d="M71.6114,78.2867 C71.9824,79.4277 70.6764,80.3757 69.7064,79.6707 L48.1604,64.0197 L48.1604,64.0107 L63.3814,52.9607 L71.6114,78.2867 Z" id="Fill-13" fill="#FC9344"></path>
                <path d="M38.7413,35.0523 L32.9293,52.9513 L32.9203,52.9513 L11.3723,37.2913 C10.4023,36.5863 10.9013,35.0523 12.1003,35.0523 L38.7413,35.0523 Z" id="Fill-15" fill="#50BAA2"></path>
                <path d="M48.1505,64.0201 L26.6035,79.6711 C25.6335,80.3761 24.3285,79.4271 24.6985,78.2871 L32.9295,52.9611 L48.1505,64.0201 Z" id="Fill-17" fill="#62C5EF"></path>
                <path d="M84.21,35.0523 C85.409,35.0523 85.908,36.5863 84.938,37.2913 L63.39,52.9513 L63.381,52.9513 L57.568,35.0523 L84.21,35.0523 Z" id="Fill-19" fill="#E14947"></path>
            </g>
        </g>
    </g>
</svg>
