<svg xmlns="http://www.w3.org/2000/svg" xmlns:xlink="http://www.w3.org/1999/xlink" viewBox="0 0 22.62 15.4"><defs><style>.cls-1{isolation:isolate;}.cls-2{fill:#e14d55;}.cls-3{fill:#bd3d4a;}.cls-4{mix-blend-mode:multiply;}.cls-5{fill:url(#linear-gradient);}</style><linearGradient id="linear-gradient" x1="6.65" y1="6.08" x2="20.13" y2="10.67" gradientUnits="userSpaceOnUse"><stop offset="0" stop-color="#ffe3a4"/><stop offset="0.17" stop-color="#ffe2a0"/><stop offset="0.33" stop-color="#ffdf94"/><stop offset="0.5" stop-color="#ffda81"/><stop offset="0.66" stop-color="#ffd365"/><stop offset="0.82" stop-color="#feca41"/><stop offset="0.98" stop-color="#fec017"/><stop offset="1" stop-color="#febe10"/></linearGradient></defs><title>向量圖智慧型物件_b01caa67-50a6-4391-88c0-15e6ceb71dbf</title><g class="cls-1"><g id="artwork"><path class="cls-2" d="M17.63,12.3l0,0a7.65,7.65,0,0,1-3.15,2.46h0a7.7,7.7,0,1,1,3.18-2.49Z"/><path class="cls-3" d="M19.1,8.6h0a7.66,7.66,0,0,1-1.47,3.7l0,0a7.75,7.75,0,0,1-3.15,2.46h0A7.69,7.69,0,0,1,3.86,6.49a7.58,7.58,0,0,1,1-2.78A4.23,4.23,0,0,1,5.94,2.33s0,0,0,0c.77-.51.46.23,1.2.63.4.22.9.45.93.9.06.74-1.19,1.15-1,1.86.14.5.84.52,1.22.87.59.55.15,1.53.25,2.33a3.22,3.22,0,0,0,1.2,1.81c.65.62,1.55,1.27,2.34.86.5-.26.82-.91,1.39-.92.33,0,.6.23.92.31a2,2,0,0,0,1.45-.32,10.29,10.29,0,0,0,1.94-1.4C18.16,8.93,18.8,7.88,19.1,8.6Z"/><path class="cls-3" d="M10.77,10.15c0-.11.12-.19.15-.3a.7.7,0,0,0,0-.32c0-.22.07-.51.3-.51s.36.46.63.57.44-.05.65,0a.37.37,0,0,1,.19.51c-.1.18-.34.22-.53.33s-.24.2-.37.28C11.29,11,10.67,10.54,10.77,10.15Z"/><path class="cls-3" d="M9.5,4.68a2,2,0,0,0-.42,0c-.22,0-.5.11-.54.33s.14.35.3.45.33.23.35.42,0,.11,0,.16a.27.27,0,0,0,.25.19.49.49,0,0,0,.32-.1.84.84,0,0,0,.35-.83A.78.78,0,0,0,9.5,4.68Z"/><g class="cls-4"><path class="cls-3" d="M19.11,6.86l-.07,0h0a32.09,32.09,0,0,1-7.46,2.81,35.18,35.18,0,0,1-7.09,1.2A8,8,0,0,0,5.6,12.67c5.47,2.1,13.14.19,13.52-4.36A3.37,3.37,0,0,0,19.11,6.86Z"/><path class="cls-3" d="M3.8,8.34h0a3.85,3.85,0,0,1,0-.48l-.06,0v.19Z"/></g><path class="cls-5" d="M22.59,4.7c-.25-.94-2.07-1.37-4.73-1.27a3,3,0,0,1,.28.45c1.34,0,2.19.21,2.31.66S20,5.5,19,6.1h0a31.91,31.91,0,0,1-7.46,2.81,34.15,34.15,0,0,1-7.37,1.21c-1.47,0-2.42-.18-2.55-.65s.7-1.2,2.16-1.94a3.7,3.7,0,0,1,0-.48C1.27,8.31-.23,9.64,0,10.63S2.22,12,5,11.9a35.5,35.5,0,0,0,7.1-1.18,35,35,0,0,0,7-2.6C21.48,6.91,22.83,5.65,22.59,4.7Z"/></g></g></svg>