<svg xmlns="http://www.w3.org/2000/svg" xmlns:xlink="http://www.w3.org/1999/xlink" viewBox="0 0 18.86 55.66"><defs><style>.cls-1{isolation:isolate;}.cls-2{fill:#ffca3b;}.cls-3{fill:#f26322;}.cls-4{fill:#c03d2f;}.cls-5,.cls-7,.cls-9{mix-blend-mode:multiply;}.cls-5{fill:url(#linear-gradient);}.cls-6{fill:#9ad5d9;}.cls-8,.cls-9{fill:#c1e2db;}.cls-10{fill:#cec5b7;}.cls-11{fill:#f8ecd9;}.cls-12{fill:#ee9e5f;}.cls-13{fill:#1d6e89;}.cls-14{fill:#0f5166;}.cls-15{fill:#c16447;}</style><linearGradient id="linear-gradient" x1="31.17" y1="41.74" x2="25.03" y2="40.06" gradientTransform="translate(-17.51 8.63) rotate(-0.6)" gradientUnits="userSpaceOnUse"><stop offset="0" stop-color="#bcbec0"/><stop offset="0.38" stop-color="#dcddde"/><stop offset="0.77" stop-color="#f5f6f6"/><stop offset="1" stop-color="#fff"/></linearGradient></defs><title>向量圖智慧型物件_a6502f60-fbc2-44d6-93a4-71bdc8953f0b</title><g class="cls-1"><g id="artwork"><path class="cls-2" d="M6.68,45.58C7,42.85,8,42.12,9.12,42.25l.31.07a1.63,1.63,0,0,1,.3-.07c1.11-.16,2.13.55,2.51,3.28s-1.11,6.6-1.11,6.6l-.72-1-.84,4.57L8.63,51.1l-.7,1.06S6.35,48.32,6.68,45.58Z"/><path class="cls-3" d="M8.28,50.29l.53-1L9.53,52l.65-2.77.56,1a15.17,15.17,0,0,0,.35-4.43,9.82,9.82,0,0,0-.41-1.9L8.2,44a9.82,9.82,0,0,0-.36,1.91A15.19,15.19,0,0,0,8.28,50.29Z"/><path class="cls-4" d="M8.92,45.23a10.12,10.12,0,0,0,.6,2.64,10.37,10.37,0,0,0,.54-2.66c0-1.05-.27-1.15-.58-1.15S8.91,44.17,8.92,45.23Z"/><path class="cls-5" d="M6.68,45.58C7,42.85,8,42.12,9.12,42.25l.31.07a1.63,1.63,0,0,1,.3-.07c1.11-.16,2.13.55,2.51,3.28s-1.11,6.6-1.11,6.6l-.72-1-.84,4.57L8.63,51.1l-.7,1.06S6.35,48.32,6.68,45.58Z"/><path class="cls-6" d="M3.6,24.3c0,.76,0,1.54.07,2.33a2.64,2.64,0,0,1,0,.29c.51,8.45,3,17.94,5.8,17.91,3.14,0,5.56-11.67,5.47-20.64-.05-4.94-.11-9.35-1.08-12.32C13.07,9.44,11.65,8,9.11,8S5.18,9.52,4.43,12C3.51,15,3.55,19.37,3.6,24.3Z"/><g class="cls-7"><path class="cls-8" d="M8.74,23.26a.15.15,0,1,1,0-.29.14.14,0,0,1,.15.15A.14.14,0,0,1,8.74,23.26Z"/><path class="cls-8" d="M8.75,24.43a.15.15,0,0,1-.15-.14.15.15,0,0,1,.15-.15.14.14,0,0,1,.14.14A.13.13,0,0,1,8.75,24.43Z"/><path class="cls-8" d="M8.74,23.85a.14.14,0,0,1-.14-.15.14.14,0,0,1,.14-.14.15.15,0,0,1,.15.14A.15.15,0,0,1,8.74,23.85Z"/><path class="cls-8" d="M8.72,21.51a.15.15,0,0,1-.15-.14.15.15,0,0,1,.15-.15.14.14,0,0,1,.14.14A.14.14,0,0,1,8.72,21.51Z"/><path class="cls-8" d="M8.73,22.1A.15.15,0,0,1,8.58,22a.15.15,0,0,1,.14-.15.15.15,0,0,1,.15.15A.15.15,0,0,1,8.73,22.1Z"/><path class="cls-8" d="M8.73,22.68a.15.15,0,0,1-.15-.14.15.15,0,0,1,.15-.15.15.15,0,0,1,.15.14A.15.15,0,0,1,8.73,22.68Z"/><path class="cls-8" d="M8.76,25.6a.15.15,0,0,1-.15-.14.15.15,0,0,1,.15-.15.15.15,0,0,1,.15.14A.15.15,0,0,1,8.76,25.6Z"/><path class="cls-8" d="M8.77,26.77a.14.14,0,0,1-.14-.15.14.14,0,0,1,.14-.14.15.15,0,0,1,.15.14A.15.15,0,0,1,8.77,26.77Z"/><path class="cls-8" d="M9,43.41a.15.15,0,0,1,.15.14A.15.15,0,0,1,9,43.7a.15.15,0,0,1-.15-.14A.15.15,0,0,1,9,43.41Z"/><path class="cls-8" d="M8.76,25a.15.15,0,0,1-.15-.15.15.15,0,0,1,.14-.15.15.15,0,0,1,.15.15A.15.15,0,0,1,8.76,25Z"/><path class="cls-8" d="M8.71,20.93a.14.14,0,0,1-.14-.15.13.13,0,0,1,.14-.14.15.15,0,0,1,.15.14A.15.15,0,0,1,8.71,20.93Z"/><path class="cls-8" d="M8.77,26.18a.15.15,0,0,1,0-.29.14.14,0,0,1,.15.15A.14.14,0,0,1,8.77,26.18Z"/><path class="cls-8" d="M9,44a.15.15,0,0,1,.15.15.15.15,0,0,1-.14.15.15.15,0,0,1-.15-.15A.15.15,0,0,1,9,44Z"/><path class="cls-8" d="M8.65,15.09a.15.15,0,0,1-.15-.15.15.15,0,0,1,.3,0A.15.15,0,0,1,8.65,15.09Z"/><path class="cls-8" d="M8.65,14.51a.15.15,0,0,1-.15-.15.15.15,0,0,1,.14-.15.15.15,0,0,1,.15.15A.15.15,0,0,1,8.65,14.51Z"/><path class="cls-8" d="M8.66,15.67a.15.15,0,0,1-.15-.14.15.15,0,0,1,.15-.15.14.14,0,0,1,.14.15A.14.14,0,0,1,8.66,15.67Z"/><path class="cls-8" d="M8.63,13.34a.15.15,0,0,1-.14-.15.14.14,0,0,1,.14-.14.14.14,0,0,1,.15.14A.15.15,0,0,1,8.63,13.34Z"/><path class="cls-8" d="M8.71,20.34a.14.14,0,0,1-.15-.14.15.15,0,0,1,.14-.15.15.15,0,0,1,.15.15A.14.14,0,0,1,8.71,20.34Z"/><path class="cls-8" d="M8.64,13.92a.15.15,0,0,1-.15-.14.15.15,0,0,1,.15-.15.14.14,0,0,1,.14.14A.13.13,0,0,1,8.64,13.92Z"/><path class="cls-8" d="M8.66,16.26a.15.15,0,0,1-.14-.15A.15.15,0,0,1,8.66,16a.15.15,0,0,1,.15.15A.15.15,0,0,1,8.66,16.26Z"/><path class="cls-8" d="M8.63,12.75a.15.15,0,1,1,0-.29.14.14,0,0,1,.15.15A.14.14,0,0,1,8.63,12.75Z"/><path class="cls-8" d="M8.69,19.18A.15.15,0,0,1,8.55,19a.15.15,0,0,1,.14-.15.15.15,0,0,1,.15.15A.15.15,0,0,1,8.69,19.18Z"/><path class="cls-8" d="M8.7,19.76a.15.15,0,0,1-.15-.14.15.15,0,0,1,.15-.15.15.15,0,0,1,.15.14A.15.15,0,0,1,8.7,19.76Z"/><path class="cls-8" d="M8.69,18.59a.15.15,0,0,1-.15-.14.15.15,0,0,1,.15-.15.14.14,0,0,1,.14.15A.14.14,0,0,1,8.69,18.59Z"/><path class="cls-8" d="M8.68,17.42a.13.13,0,0,1-.15-.14.15.15,0,0,1,.14-.15.15.15,0,0,1,.15.15A.14.14,0,0,1,8.68,17.42Z"/><path class="cls-8" d="M8.68,18a.14.14,0,0,1-.14-.15.13.13,0,0,1,.14-.14.15.15,0,0,1,.15.14A.15.15,0,0,1,8.68,18Z"/><path class="cls-8" d="M8.67,16.84a.15.15,0,0,1-.15-.14.15.15,0,0,1,.15-.15.15.15,0,0,1,.15.14A.15.15,0,0,1,8.67,16.84Z"/><path class="cls-8" d="M8.89,37.57a.14.14,0,0,1,.14.15.13.13,0,0,1-.14.14.15.15,0,0,1-.15-.14A.15.15,0,0,1,8.89,37.57Z"/><path class="cls-8" d="M8.84,32.9A.15.15,0,0,1,9,33a.15.15,0,0,1-.15.15.15.15,0,0,1-.15-.14A.15.15,0,0,1,8.84,32.9Z"/><path class="cls-8" d="M8.85,34.07a.15.15,0,0,1,.15.14.15.15,0,0,1-.15.15.14.14,0,0,1-.14-.15A.13.13,0,0,1,8.85,34.07Z"/><path class="cls-8" d="M8.84,33.48a.15.15,0,0,1,.15.15.15.15,0,0,1-.14.15.15.15,0,0,1-.15-.15A.15.15,0,0,1,8.84,33.48Z"/><path class="cls-8" d="M8.83,32.32a.14.14,0,0,1,.15.14.15.15,0,0,1-.14.15.15.15,0,0,1-.15-.15A.14.14,0,0,1,8.83,32.32Z"/><path class="cls-8" d="M8.86,35.24a.14.14,0,0,1,.15.14.15.15,0,0,1-.14.15.15.15,0,0,1-.15-.15A.14.14,0,0,1,8.86,35.24Z"/><path class="cls-8" d="M8.87,35.82A.15.15,0,0,1,9,36a.15.15,0,0,1-.15.15A.15.15,0,0,1,8.72,36,.15.15,0,0,1,8.87,35.82Z"/><path class="cls-8" d="M8.83,31.73a.14.14,0,0,1,.14.15.14.14,0,0,1-.14.14.15.15,0,0,1-.15-.14A.15.15,0,0,1,8.83,31.73Z"/><path class="cls-8" d="M8.86,34.65A.14.14,0,0,1,9,34.8a.14.14,0,0,1-.14.14.15.15,0,0,1-.15-.14A.15.15,0,0,1,8.86,34.65Z"/><path class="cls-8" d="M8.81,30.56a.15.15,0,0,1,.15.15.15.15,0,0,1-.14.15.15.15,0,0,1-.15-.15A.15.15,0,0,1,8.81,30.56Z"/><path class="cls-8" d="M8.8,28.81a.14.14,0,0,1,.14.15.14.14,0,0,1-.14.14A.15.15,0,0,1,8.65,29,.15.15,0,0,1,8.8,28.81Z"/><path class="cls-8" d="M8.78,27.64a.15.15,0,0,1,.15.15.15.15,0,0,1-.14.15.15.15,0,0,1-.15-.15A.15.15,0,0,1,8.78,27.64Z"/><path class="cls-8" d="M8.82,31.15a.15.15,0,0,1,.15.14.15.15,0,0,1-.15.15.14.14,0,0,1-.14-.15A.13.13,0,0,1,8.82,31.15Z"/><path class="cls-8" d="M8.78,27.06a.14.14,0,0,1,.13.09h.25L9,12H9.3l.21,20.2a.14.14,0,0,1,.14.14.15.15,0,0,1-.14.15v.28l4.87-.05V33L9.52,33l.12,11.8H9.35L9.17,27.44l-5.45.06v-.29l4.92-.06A.15.15,0,0,1,8.78,27.06Z"/><path class="cls-8" d="M8.79,28.23a.15.15,0,0,1,.15.14.15.15,0,0,1-.15.15.15.15,0,0,1-.15-.14A.15.15,0,0,1,8.79,28.23Z"/><path class="cls-8" d="M8.94,42.83a.15.15,0,0,1,.15.14.15.15,0,0,1-.15.15A.14.14,0,0,1,8.8,43,.14.14,0,0,1,8.94,42.83Z"/><path class="cls-8" d="M8.81,30a.15.15,0,0,1,.15.14.15.15,0,0,1-.15.15.15.15,0,0,1-.15-.14A.15.15,0,0,1,8.81,30Z"/><path class="cls-8" d="M8.8,29.4a.14.14,0,0,1,.15.14.15.15,0,0,1-.15.15.15.15,0,0,1-.14-.15A.14.14,0,0,1,8.8,29.4Z"/><path class="cls-8" d="M8.87,36.4a.15.15,0,0,1,.15.15.14.14,0,0,1-.14.14.14.14,0,0,1-.15-.14A.15.15,0,0,1,8.87,36.4Z"/><path class="cls-8" d="M8.92,41.07a.15.15,0,0,1,.15.15.15.15,0,0,1-.14.15.15.15,0,0,1-.15-.15A.15.15,0,0,1,8.92,41.07Z"/><path class="cls-8" d="M8.93,41.66a.15.15,0,0,1,.15.14.15.15,0,0,1-.15.15.14.14,0,0,1-.14-.14A.13.13,0,0,1,8.93,41.66Z"/><path class="cls-8" d="M8.92,40.49a.14.14,0,0,1,.14.15.13.13,0,0,1-.14.14.15.15,0,0,1-.15-.14A.15.15,0,0,1,8.92,40.49Z"/><path class="cls-8" d="M8.94,42.24a.15.15,0,0,1,.14.15.14.14,0,0,1-.14.14.14.14,0,0,1-.15-.14A.15.15,0,0,1,8.94,42.24Z"/><path class="cls-8" d="M8.88,37a.15.15,0,0,1,.15.14.15.15,0,0,1-.15.15.14.14,0,0,1-.14-.15A.14.14,0,0,1,8.88,37Z"/><path class="cls-8" d="M8.89,38.15A.15.15,0,0,1,9,38.3a.15.15,0,0,1-.14.15.15.15,0,0,1-.15-.15A.15.15,0,0,1,8.89,38.15Z"/><path class="cls-8" d="M8.9,38.74a.15.15,0,0,1,.15.14A.15.15,0,0,1,8.9,39a.15.15,0,0,1-.15-.14A.15.15,0,0,1,8.9,38.74Z"/><path class="cls-8" d="M8.91,39.32a.15.15,0,0,1,.14.15.14.14,0,0,1-.14.14.14.14,0,0,1-.15-.14A.15.15,0,0,1,8.91,39.32Z"/><path class="cls-8" d="M8.91,39.91a.15.15,0,0,1,.15.14.15.15,0,0,1-.15.15.14.14,0,0,1-.14-.15A.14.14,0,0,1,8.91,39.91Z"/><path class="cls-8" d="M7.77,26.88a.15.15,0,0,1-.15-.15.15.15,0,0,1,.3,0A.15.15,0,0,1,7.77,26.88Z"/><path class="cls-8" d="M7.19,26.88a.15.15,0,1,1,0-.29.14.14,0,0,1,.15.15A.14.14,0,0,1,7.19,26.88Z"/><path class="cls-8" d="M8.35,26.87a.14.14,0,0,1-.14-.14.15.15,0,1,1,.29,0A.14.14,0,0,1,8.35,26.87Z"/><path class="cls-8" d="M5.43,26.9a.14.14,0,0,1-.14-.14.15.15,0,0,1,.29,0A.14.14,0,0,1,5.43,26.9Z"/><path class="cls-8" d="M3.67,26.63a2.64,2.64,0,0,1,0,.29.15.15,0,0,0,.14-.15.15.15,0,0,0-.15-.14Z"/><path class="cls-8" d="M6.6,26.89a.14.14,0,0,1-.14-.14.13.13,0,0,1,.14-.15.15.15,0,0,1,.15.14A.15.15,0,0,1,6.6,26.89Z"/><path class="cls-8" d="M4.85,26.91a.15.15,0,0,1-.15-.15.15.15,0,0,1,.15-.14.15.15,0,0,1,.15.14A.15.15,0,0,1,4.85,26.91Z"/><path class="cls-8" d="M6,26.9a.15.15,0,0,1-.15-.15A.15.15,0,0,1,6,26.6a.15.15,0,0,1,0,.3Z"/><path class="cls-8" d="M4.27,26.91a.14.14,0,0,1-.15-.14.15.15,0,0,1,.14-.15.15.15,0,0,1,.15.15A.14.14,0,0,1,4.27,26.91Z"/><path class="cls-8" d="M11.84,32.43a.15.15,0,0,1-.15-.14.15.15,0,1,1,.3,0A.15.15,0,0,1,11.84,32.43Z"/><path class="cls-8" d="M11.26,32.44a.15.15,0,0,1-.15-.15.14.14,0,0,1,.14-.14.14.14,0,0,1,.15.14A.15.15,0,0,1,11.26,32.44Z"/><path class="cls-8" d="M10.67,32.45a.15.15,0,0,1-.14-.15.14.14,0,0,1,.14-.15.15.15,0,0,1,.15.15A.16.16,0,0,1,10.67,32.45Z"/><path class="cls-8" d="M14.18,32.41a.15.15,0,0,1-.15-.15.14.14,0,0,1,.14-.14.15.15,0,1,1,0,.29Z"/><path class="cls-8" d="M10.09,32.45a.15.15,0,0,1-.15-.14.15.15,0,0,1,.15-.15.14.14,0,0,1,.14.14A.14.14,0,0,1,10.09,32.45Z"/><path class="cls-8" d="M12.43,32.43a.15.15,0,0,1-.15-.15.14.14,0,0,1,.14-.14.14.14,0,0,1,.15.14A.15.15,0,0,1,12.43,32.43Z"/><path class="cls-8" d="M13.59,32.41a.13.13,0,0,1-.14-.14.14.14,0,0,1,.14-.15.15.15,0,0,1,.15.15A.15.15,0,0,1,13.59,32.41Z"/><path class="cls-8" d="M13,32.42a.15.15,0,0,1-.15-.14.15.15,0,1,1,.29,0A.15.15,0,0,1,13,32.42Z"/></g><path class="cls-9" d="M8,34.78a1.33,1.33,0,1,0,1.32-1.34A1.32,1.32,0,0,0,8,34.78Z"/><path class="cls-9" d="M6.88,35.07c3.32,0,5.91-8.95,5.84-15.82,0-3.78-.08-7.16-1.11-9.43a5.31,5.31,0,0,0-1.16-1.67c1.72.42,2.78,1.75,3.43,3.72,1,3,1,7.38,1.08,12.32.09,9-2.33,20.61-5.47,20.64-2.1,0-4-5.19-5-11.33A3.2,3.2,0,0,0,6.88,35.07Z"/><path class="cls-10" d="M8,34.28a1.34,1.34,0,1,0,1.32-1.35A1.34,1.34,0,0,0,8,34.28Z"/><path class="cls-11" d="M8,33.91a1.33,1.33,0,1,0,1.32-1.35A1.33,1.33,0,0,0,8,33.91Z"/><path class="cls-12" d="M4.43,12l9.45-.1c-.62-1.86-1.6-3.15-3.16-3.64A1.73,1.73,0,0,1,9.49,6.59L9.42.17H8.64L8.7,6.59A1.73,1.73,0,0,1,7.51,8.26,4.6,4.6,0,0,0,4.77,11l-.16.42C4.55,11.6,4.48,11.78,4.43,12Z"/><path class="cls-12" d="M8.48.56A.56.56,0,0,0,9,1.11.57.57,0,0,0,9.59.55.56.56,0,0,0,9,0,.55.55,0,0,0,8.48.56Z"/><path class="cls-12" d="M8.32,3.13a.75.75,0,0,0,.75.74.74.74,0,0,0,.73-.75.75.75,0,0,0-.75-.74A.74.74,0,0,0,8.32,3.13Z"/><path class="cls-12" d="M8.23,5.71a.86.86,0,1,0,.85-.87A.86.86,0,0,0,8.23,5.71Z"/><path class="cls-11" d="M12.51,11.14a.22.22,0,1,0,.22-.23A.22.22,0,0,0,12.51,11.14Zm-.9,0a.24.24,0,0,0,.23.22.23.23,0,0,0,.22-.23.22.22,0,0,0-.22-.22A.23.23,0,0,0,11.61,11.15Zm-.89,0a.22.22,0,0,0,.23.22.23.23,0,1,0,0-.45A.22.22,0,0,0,10.72,11.16Zm-.89,0a.22.22,0,1,0,.22-.23A.22.22,0,0,0,9.83,11.17Zm-.9,0a.24.24,0,0,0,.23.22.23.23,0,0,0,.22-.23A.22.22,0,0,0,9.16,11,.23.23,0,0,0,8.93,11.18Zm-.89,0a.22.22,0,0,0,.23.22.24.24,0,0,0,.22-.23A.23.23,0,0,0,8.26,11,.22.22,0,0,0,8,11.19Zm-.89,0a.22.22,0,0,0,.22.23.23.23,0,0,0,.22-.23.22.22,0,0,0-.44,0Zm-.9,0a.23.23,0,0,0,.23.22.22.22,0,0,0,.22-.22A.22.22,0,0,0,6.48,11,.22.22,0,0,0,6.25,11.2Zm-.89,0a.22.22,0,0,0,.23.22.22.22,0,1,0-.23-.22Zm-.75.22h.08A.22.22,0,0,0,4.77,11Z"/><path class="cls-9" d="M5.33,21A3.92,3.92,0,1,0,9.2,17,3.91,3.91,0,0,0,5.33,21Z"/><path class="cls-12" d="M5.32,20.27a3.92,3.92,0,1,0,3.88-4A3.92,3.92,0,0,0,5.32,20.27Z"/><path class="cls-13" d="M6.61,20.25a2.63,2.63,0,1,0,2.6-2.65A2.63,2.63,0,0,0,6.61,20.25Z"/><path class="cls-11" d="M9,24H9a.22.22,0,0,1-.21-.23h0a.23.23,0,0,1,.24-.21h0a.22.22,0,0,1,.21.24A.23.23,0,0,1,9,24ZM9.93,24h0a.24.24,0,0,1-.23-.19h0a.23.23,0,0,1,.18-.26h0a.23.23,0,0,1,.26.18h0a.21.21,0,0,1-.17.26Zm-1.77-.1h0l-.07,0h0A.22.22,0,0,1,8,23.55H8a.22.22,0,0,1,.28-.14h0a.22.22,0,0,1,.14.28A.24.24,0,0,1,8.16,23.85Zm2.61-.18h0a.23.23,0,0,1-.2-.13h0a.22.22,0,0,1,.1-.3h0a.23.23,0,0,1,.3.1h0a.23.23,0,0,1-.11.31h0A.17.17,0,0,1,10.77,23.67Zm-3.41-.2h0a.28.28,0,0,1-.13,0h0a.24.24,0,0,1-.07-.31h0a.23.23,0,0,1,.31-.07h0a.22.22,0,0,1-.11.41Zm4.16-.28h0a.21.21,0,0,1-.17-.09h0a.21.21,0,0,1,0-.31h0a.21.21,0,0,1,.31,0h0a.21.21,0,0,1,0,.31A.2.2,0,0,1,11.52,23.19Zm-4.86-.28h0a.23.23,0,0,1-.16-.07h0a.23.23,0,0,1,0-.32h0a.22.22,0,0,1,.31,0h0a.22.22,0,0,1,0,.32A.2.2,0,0,1,6.66,22.91Zm5.47-.38h0a.22.22,0,0,1-.13,0h0a.21.21,0,0,1-.05-.31h0a.22.22,0,0,1,.31-.05h0a.22.22,0,0,1,.05.31A.23.23,0,0,1,12.13,22.53Zm-6-.34h0a.23.23,0,0,1-.19-.11h0A.23.23,0,0,1,6,21.77H6a.24.24,0,0,1,.31.09h0a.24.24,0,0,1-.09.31Zm6.43-.44h-.09a.22.22,0,0,1-.12-.29h0a.21.21,0,0,1,.29-.13h0a.22.22,0,0,1,.12.29A.2.2,0,0,1,12.56,21.75ZM5.8,21.37h0a.22.22,0,0,1-.22-.17h0a.22.22,0,0,1,.16-.27h0a.22.22,0,0,1,.27.16H6a.22.22,0,0,1-.16.27Zm7-.48h0a.23.23,0,0,1-.2-.25h0a.23.23,0,0,1,.25-.2h0a.24.24,0,0,1,.2.25A.23.23,0,0,1,12.78,20.89Zm-7.1-.4h0a.23.23,0,0,1-.23-.22h0s0,0,0,0h0a.08.08,0,0,1,0,0h0A.22.22,0,0,1,5.68,20h0a.22.22,0,0,1,.22.22h0v0h0v0h0A.23.23,0,0,1,5.68,20.49ZM12.77,20h0a.22.22,0,0,1-.22-.2h0a.22.22,0,0,1,.19-.25h0a.24.24,0,0,1,.26.2h0a.24.24,0,0,1-.2.25Zm-7-.46H5.73a.22.22,0,0,1-.15-.27h0a.22.22,0,0,1,.27-.16h0a.23.23,0,0,1,.16.27A.23.23,0,0,1,5.79,19.54Zm6.76-.41h0a.23.23,0,0,1-.21-.14h0a.24.24,0,0,1,.13-.29h0a.24.24,0,0,1,.29.13h0a.23.23,0,0,1-.13.29Zm-6.42-.42h0a.2.2,0,0,1-.11,0H6a.23.23,0,0,1-.09-.31h0a.22.22,0,0,1,.3-.08h0a.22.22,0,0,1,.09.3h0A.23.23,0,0,1,6.13,18.71Zm6-.36h0a.21.21,0,0,1-.18-.09h0A.22.22,0,0,1,12,18h0a.22.22,0,0,1,.31.05h0a.21.21,0,0,1-.05.31A.2.2,0,0,1,12.12,18.35ZM6.66,18h0a.23.23,0,0,1-.16-.06h0a.23.23,0,0,1,0-.32h0a.23.23,0,0,1,.32,0h0a.23.23,0,0,1,0,.32h0A.28.28,0,0,1,6.66,18Zm4.85-.29h0a.2.2,0,0,1-.14-.06h0a.22.22,0,0,1,0-.31h0a.21.21,0,0,1,.31,0h0a.21.21,0,0,1,0,.31A.2.2,0,0,1,11.51,17.71Zm-4.17-.28h0a.26.26,0,0,1-.19-.1h0A.24.24,0,0,1,7.22,17h0a.22.22,0,0,1,.31.07h0a.23.23,0,0,1-.07.31h0A.27.27,0,0,1,7.34,17.43Zm3.42-.2h0l-.1,0h0a.23.23,0,0,1-.1-.3h0a.23.23,0,0,1,.3-.11h0a.23.23,0,0,1,.1.3A.23.23,0,0,1,10.76,17.23Zm-2.61-.18h0a.21.21,0,0,1-.21-.15h0a.22.22,0,0,1,.14-.28h0a.22.22,0,0,1,.28.15h0a.21.21,0,0,1-.14.27ZM9.92,17H9.87a.24.24,0,0,1-.18-.27h0a.23.23,0,0,1,.27-.17h0a.22.22,0,0,1,0,.44ZM9,16.89H9a.23.23,0,0,1-.23-.21h0A.22.22,0,0,1,9,16.45H9a.22.22,0,0,1,.24.21h0a.22.22,0,0,1-.21.23H9Z"/><path class="cls-14" d="M7.21,18.56a2.42,2.42,0,0,0-.36,1.28,2.39,2.39,0,1,0,4.38-1.32,2.57,2.57,0,0,1,.63,1.68,2.63,2.63,0,1,1-4.65-1.64Z"/><polygon class="cls-12" points="0.8 39.92 1.42 42.5 2.29 42.2 6.76 40.65 5.97 34.04 1.51 39.11 0.8 39.92"/><path class="cls-15" d="M.8,39.92l.62,2.58.87-.3c0-.31-.12-.64-.2-1-.2-.81-.38-1.55-.58-2.11Z"/><path class="cls-12" d="M.4,40.89c.44,1.81,1.23,4,1.57,3.9s.09-2.39-.35-4.19S1,38.12.39,38.27,0,39.09.4,40.89Z"/><polygon class="cls-12" points="18.09 39.74 17.52 42.33 16.64 42.05 12.14 40.6 12.79 33.97 17.36 38.94 18.09 39.74"/><path class="cls-15" d="M18.09,39.74l-.57,2.59-.88-.28c.05-.31.11-.64.19-1,.18-.82.34-1.56.52-2.13Z"/><path class="cls-12" d="M18.5,40.71c-.4,1.81-1.14,4-1.48,3.93s-.14-2.39.26-4.2.57-2.49,1.18-2.36S18.9,38.9,18.5,40.71Z"/></g></g></svg>