<svg id="圖層_1" data-name="圖層 1" xmlns="http://www.w3.org/2000/svg" viewBox="0 0 146.92 54.92"><defs><style>.cls-1{fill:#295588;}.cls-2{fill:#f8c024;}.cls-3{fill:#ed965c;}.cls-4{fill:#54b39b;}.cls-5{fill:#53b7db;}.cls-6{fill:#c44a48;}</style></defs><title>工作區域 1</title><path class="cls-1" d="M67.19,48.41a6.45,6.45,0,0,1-6.41,6.44H60.7A19.34,19.34,0,0,1,41.36,35.74V6.58a6.45,6.45,0,0,1,12.9,0v9.59h6.52a6.45,6.45,0,0,1,0,12.9H54.26v6.67A6.38,6.38,0,0,0,60.83,42,6.45,6.45,0,0,1,67.19,48.41Z"/><path class="cls-1" d="M146.92,17.26a18.78,18.78,0,0,0-11,9.93,16,16,0,0,0-1.87,7.59V48.34a6.45,6.45,0,1,1-12.9,0s0-7.3,0-13.56c0-10.34,8.89-18.61,19.33-18.61A19.38,19.38,0,0,1,146.92,17.26Z"/><path class="cls-1" d="M15.4,54.92C8.83,54.92,0,50.53,0,44.88a6.45,6.45,0,0,1,6.45-6.45c1,0,2.1.18,7,2.5,4,1.88,6.07-.22,6.88-1.6C22,36,20.3,34,19.22,33.23c-2.35-1.59-4.92-1.68-8.37-2.91C5.13,28.29,0,23,0,16.24,0-4.37,31.3-3.36,31.3,8.13a6.42,6.42,0,0,1-7.77,6.29c-.82-.16-5-1.37-6.38-1.59A3,3,0,0,0,13.56,15c-1.15,8.34,20.65,3,20.65,22.37C34.21,45.83,27.5,54.92,15.4,54.92Z"/><path class="cls-1" d="M115.89,17.67a6.44,6.44,0,0,0,5.58,9.66,6.44,6.44,0,0,0-5.58-9.66Z"/><path class="cls-1" d="M111.73,34.84a19.31,19.31,0,1,0-11,18.13,6.46,6.46,0,0,0,11-4.56S111.75,35.06,111.73,34.84ZM98.6,37.26l-6.16,4.47-6.17-4.47h0L88.62,30h7.63l2.35,7.25Z"/><path class="cls-2" d="M96.24,30H88.62L92,19.73a.51.51,0,0,1,1,0Z"/><path class="cls-3" d="M101.94,47.52a.51.51,0,0,1-.78.56l-8.72-6.34h0l6.16-4.47Z"/><path class="cls-4" d="M88.62,30l-2.35,7.25h0l-8.73-6.34a.5.5,0,0,1,.3-.91Z"/><path class="cls-5" d="M92.43,41.74,83.7,48.08a.5.5,0,0,1-.77-.56l3.34-10.26Z"/><path class="cls-6" d="M107,30a.5.5,0,0,1,.3.91l-8.73,6.34h0L96.25,30Z"/></svg>
