<svg id="圖層_1" data-name="圖層 1" xmlns="http://www.w3.org/2000/svg" viewBox="0 0 142.63 14.24"><defs><style>.cls-1{fill:#cacaca;}.cls-2{fill:#ed7700;}</style></defs><title>工作區域 6</title><path class="cls-1" d="M130.76,5.78h2a5.77,5.77,0,0,0-10.69-3V0h-2l-2,2h2v9.51h2V8.79a5.69,5.69,0,0,1-.86-3,4.71,4.71,0,0,1,1.19-3.13l0-.06a3.22,3.22,0,0,1,.32-.32l.07-.07a3.68,3.68,0,0,1,.39-.3l0,0a4.48,4.48,0,0,1,.47-.28h0a4.54,4.54,0,0,1,.45-.21l.14-.05a2.29,2.29,0,0,1,.37-.12l.17,0a2.41,2.41,0,0,1,.37-.07l.17,0A4.93,4.93,0,0,1,126,1a4.43,4.43,0,0,1,.81.07h.1l.13,0a4.27,4.27,0,0,1,1.12.4h0l.37.22,0,0,.33.22,0,0a2.51,2.51,0,0,1,.31.26l0,0c.1.09.19.19.28.28l0,0,.25.3.09.14.15.22c.05.08.09.16.13.24a1,1,0,0,1,.08.14c0,.09.08.19.12.28l.06.13c.05.13.09.26.13.4v0a4.25,4.25,0,0,1,.16.89,2.36,2.36,0,0,1,0,.38"/><path class="cls-1" d="M140.25,7.48V0h-.34l-9.17,9.17h7.47v2.37h2V9.18h2.38V7.48Zm-2,0h-3.39l3.39-3.4Z"/><path class="cls-2" d="M130.74,9.18l1.84-1.84a5.76,5.76,0,0,0,.22-1.56h-2a3.75,3.75,0,1,1,0-.38,4.75,4.75,0,0,0-9.49.38,5.78,5.78,0,0,0,10.44,3.4Z"/><path class="cls-1" d="M0,3.14H1.05V4.63A4.15,4.15,0,0,1,2.47,3.36a3.74,3.74,0,0,1,1.8-.43,4,4,0,0,1,3,1.25,4.08,4.08,0,0,1,1.24,3,4.23,4.23,0,0,1-1.22,3.05A4,4,0,0,1,4.3,11.48a4,4,0,0,1-1.78-.4A4.29,4.29,0,0,1,1.05,9.87v4.37H0Zm4.19.8a3,3,0,0,0-2.29.95A3.22,3.22,0,0,0,1,7.25a3.4,3.4,0,0,0,.41,1.66,3.11,3.11,0,0,0,1.19,1.17,3.27,3.27,0,0,0,1.63.44,3.06,3.06,0,0,0,1.58-.44A3.24,3.24,0,0,0,7,8.86,3.3,3.3,0,0,0,7,5.57,3.15,3.15,0,0,0,4.19,3.94Z"/><path class="cls-1" d="M16.57,2.93a4,4,0,0,1,3.12,1.36,4.28,4.28,0,0,1,1.12,2.94,4.25,4.25,0,0,1-1.19,3,4,4,0,0,1-3.05,1.27,4,4,0,0,1-3.06-1.27,4.25,4.25,0,0,1-1.18-3A4.19,4.19,0,0,1,13.45,4.3,4,4,0,0,1,16.57,2.93Zm0,1a3,3,0,0,0-2.25,1,3.23,3.23,0,0,0-.93,2.33,3.31,3.31,0,0,0,.42,1.64A3.06,3.06,0,0,0,15,10.07a3.13,3.13,0,0,0,1.6.42,3.1,3.1,0,0,0,1.59-.42,3.06,3.06,0,0,0,1.16-1.18,3.32,3.32,0,0,0,.43-1.64,3.24,3.24,0,0,0-.94-2.33A3,3,0,0,0,16.57,4Z"/><path class="cls-1" d="M23.94,3.14H25L27.51,9l2.59-5.9h.19L32.9,9l2.55-5.9h1.08L33,11.27h-.19l-2.6-5.82-2.6,5.82h-.2Z"/><path class="cls-1" d="M46.9,8.57l.88.47a4.9,4.9,0,0,1-1,1.37,4.06,4.06,0,0,1-1.28.8,4.49,4.49,0,0,1-1.61.27,3.92,3.92,0,0,1-3.11-1.3,4.46,4.46,0,0,1-.17-5.71,3.87,3.87,0,0,1,3.22-1.54,4,4,0,0,1,3.32,1.58,4.39,4.39,0,0,1,.9,2.78H40.73a3.37,3.37,0,0,0,.91,2.32,2.89,2.89,0,0,0,2.16.91A3.55,3.55,0,0,0,45,10.3a3.23,3.23,0,0,0,1-.57A5.14,5.14,0,0,0,46.9,8.57Zm0-2.19A3.47,3.47,0,0,0,46.29,5a2.89,2.89,0,0,0-1.06-.8,3.16,3.16,0,0,0-1.38-.31,3,3,0,0,0-2.06.77,3.45,3.45,0,0,0-.95,1.68Z"/><path class="cls-1" d="M51.9,3.14H53V4.33a3.64,3.64,0,0,1,1-1.05,2,2,0,0,1,1.11-.35,1.86,1.86,0,0,1,.92.28l-.54.88A1.38,1.38,0,0,0,54.91,4a1.51,1.51,0,0,0-1,.43,2.72,2.72,0,0,0-.74,1.33A12.83,12.83,0,0,0,53,8.52v2.75H51.9Z"/><path class="cls-1" d="M66,8.57l.89.47a4.92,4.92,0,0,1-1,1.37,4.06,4.06,0,0,1-1.28.8,4.47,4.47,0,0,1-1.6.27,3.93,3.93,0,0,1-3.12-1.3,4.45,4.45,0,0,1-1.12-2.95,4.38,4.38,0,0,1,.95-2.76,3.88,3.88,0,0,1,3.23-1.54,4,4,0,0,1,3.32,1.58,4.45,4.45,0,0,1,.89,2.78H59.82a3.32,3.32,0,0,0,.9,2.32,2.93,2.93,0,0,0,2.17.91,3.54,3.54,0,0,0,1.2-.22,3.12,3.12,0,0,0,1-.57A4.87,4.87,0,0,0,66,8.57Zm0-2.19A3.47,3.47,0,0,0,65.37,5a2.85,2.85,0,0,0-1.05-.8,3.2,3.2,0,0,0-1.39-.31,3,3,0,0,0-2.06.77,3.53,3.53,0,0,0-.95,1.68Z"/><path class="cls-1" d="M79.5,0V11.27h-1V9.87A4.42,4.42,0,0,1,77,11.08a4.12,4.12,0,0,1-1.79.4,4,4,0,0,1-3-1.25A4.23,4.23,0,0,1,71,7.18a4.11,4.11,0,0,1,1.23-3,4,4,0,0,1,3-1.25A3.75,3.75,0,0,1,77,3.36a4.17,4.17,0,0,1,1.43,1.27V0ZM75.32,3.94a3.15,3.15,0,0,0-2.79,1.63,3.3,3.3,0,0,0,0,3.29,3.24,3.24,0,0,0,1.19,1.22,3.07,3.07,0,0,0,1.59.44,3.3,3.3,0,0,0,1.63-.44,3.08,3.08,0,0,0,1.18-1.17,3.3,3.3,0,0,0,.41-1.66,3.22,3.22,0,0,0-.93-2.36A3,3,0,0,0,75.32,3.94Z"/><path class="cls-1" d="M90.76,11.27V0h1V4.54a4.49,4.49,0,0,1,1.47-1.21,3.94,3.94,0,0,1,1.78-.4,4,4,0,0,1,3,1.25,4.22,4.22,0,0,1,1.22,3,4.12,4.12,0,0,1-1.23,3,4,4,0,0,1-3,1.25,3.74,3.74,0,0,1-1.8-.43,4.24,4.24,0,0,1-1.42-1.27v1.49Zm4.19-.8A3.11,3.11,0,0,0,96.56,10a3.17,3.17,0,0,0,1.17-1.21,3.28,3.28,0,0,0,.44-1.64,3.34,3.34,0,0,0-.44-1.65,3.15,3.15,0,0,0-1.18-1.22A3,3,0,0,0,95,3.88a3.2,3.2,0,0,0-1.63.44,3,3,0,0,0-1.18,1.17,3.34,3.34,0,0,0-.42,1.67,3.23,3.23,0,0,0,.93,2.36A3.09,3.09,0,0,0,95,10.47Z"/><path class="cls-1" d="M102.56,3.14h1.1l2.8,6.26,2.71-6.26h1.12l-4.86,11.1h-1.1l1.56-3.59Z"/></svg>
