<svg id="圖層_1" data-name="圖層 1" xmlns="http://www.w3.org/2000/svg" viewBox="0 0 142.63 19.66"><defs><style>.cls-1{fill:#686868;}</style></defs><title>工作區域 1 複本</title><path class="cls-1" d="M9.68,11.53a15.25,15.25,0,0,1-1.87,3.18,18.82,18.82,0,0,1-6.63,4.65L0,17.72C4.93,15.93,7.79,13,8.59,9.05H.06V7.18H8.82l0-.47V2.88H1.54V1H18V2.88H10.71v4.3H19.4V9.05H10.9a5.75,5.75,0,0,0,.38,1.56q1.44,4.13,8.27,7.38l-1.41,1.44L17.3,19C13.25,16.71,10.7,14.23,9.68,11.53Z"/><path class="cls-1" d="M27.61,15a12.84,12.84,0,0,1-1.68,4.61,5.59,5.59,0,0,0-1.43-.95,8.32,8.32,0,0,0,1.34-4Zm2.61-.93H25.53c-.16,0-.23-.08-.23-.25V.86c0-.14.07-.21.23-.21h4.69c.17,0,.25.07.25.21v13A.22.22,0,0,1,30.22,14.1ZM28.83,4.67V2.34l-.08-.07H27l0,.07V4.67Zm0,3.88V6.29H26.94V8.55Zm-1.89,1.61V12.4l0,.08h1.77a.07.07,0,0,0,.08-.08V10.16Zm2.82,4.47A16.1,16.1,0,0,1,31,17.72l-1.53.57a17.46,17.46,0,0,0-1.25-3ZM36.6,6.25V9.64h1.91v1.7H36.6v5.18l2.21-.74.59,1.69a41.16,41.16,0,0,1-8.15,2.19L30.69,18l1.15-.23V8.42h1.71v8.92L34.87,17V6.25H31.11V4.55h7.3L38.35,0l1.7.17c-.07,1.47-.07,2.92,0,4.36h4.06v1.7h-4A35.78,35.78,0,0,0,41.9,16.46c.16.45.3.67.42.67s.17-.09.21-.23a14.75,14.75,0,0,0,.19-3.22l1.64.46a25.59,25.59,0,0,1-.5,4.17,1.61,1.61,0,0,1-.55.88,1.34,1.34,0,0,1-.82.3,1.26,1.26,0,0,1-.88-.53l-.51-.73q-2.2-4-2.61-12Zm1-4.9v1.7H32.18V1.35ZM42.05.08A16.49,16.49,0,0,1,44.24,3L42.81,4A15.21,15.21,0,0,0,40.7,1.16Z"/><path class="cls-1" d="M51.54,5.43H49.48V3.73h2.06V.11h1.71V3.73H55.1v1.7H53.25V9.51l1.26-.9L55.58,10a14.06,14.06,0,0,1-2.33,1.48v6a2,2,0,0,1-.91,1.72c-.6.39-1.63.36-3.07-.1l0-1.77q1.72.48,2,.27a.67.67,0,0,0,.19-.54V12.35L50.22,13l-1-1.43,2.29-1Zm11.11,14H60.86V13.11A20.45,20.45,0,0,1,55.56,18L54.3,16.61a20.05,20.05,0,0,0,5.89-5.27H56.13V9.64h4.73V7.09h1.79V9.64h5.52v1.7H63.33a19.14,19.14,0,0,0,5.51,5.52L67.39,18a27,27,0,0,1-4.74-4.82ZM61.1,2.36v.57a6.75,6.75,0,0,1-1,3.49,6,6,0,0,1-3.77,1.91l-.82-1.57a5.13,5.13,0,0,0,3.07-1.18,4,4,0,0,0,.85-2.65V2.36H57.35c-.11,0-.17.05-.17.14V5h-1.7V1a.27.27,0,0,1,.31-.31H67.33l1.47.75A15.93,15.93,0,0,1,68.06,5l-1.62-.51a10,10,0,0,0,.42-1.85c0-.16-.07-.23-.21-.23h-2V5.79a.86.86,0,0,0,.25.63,1.13,1.13,0,0,0,.64.27h1A.8.8,0,0,0,67,6.5l.3-1.36,1.47.44a5.55,5.55,0,0,1-.49,2,1.52,1.52,0,0,1-1.07.61H64.59a1.73,1.73,0,0,1-1.12-.55,1.58,1.58,0,0,1-.46-1V2.36Z"/><path class="cls-1" d="M80.58,15.68a16.1,16.1,0,0,1-5.89,3.45l-.88-1.62a13.88,13.88,0,0,0,5.57-3.16ZM74.8,14.14l-.45-1.66,7-.46.15-.13a21.88,21.88,0,0,0-4.46-3l.71-1.53a5.44,5.44,0,0,1,2.23,1.3l2.25-2.46H76.25c-.1,0-.15.06-.15.17V9.3H74.31V4.88c0-.22.09-.33.32-.33h8.14V3H74.92V1.26h7.85V.11h1.79V1.26h7.81V3H84.56V4.55h7.37l1.55.77a19.2,19.2,0,0,1-1,4.28L90.83,9a17.28,17.28,0,0,0,.61-2.51c0-.18-.06-.27-.23-.27H84.37q-1.14,1.39-3.13,3.39l1.49,1.16q1.77-1.67,3.54-3.67l1.24,1.18a44,44,0,0,1-3.41,3.52l5.43-.38-1.12-1.37,1.37-1a46.13,46.13,0,0,1,3.68,5L92,14.92l-1.32-2-6.13.47v6.1H82.77v-6Zm12.69.19a58.41,58.41,0,0,1,5.85,3.54l-1,1.43a52.77,52.77,0,0,0-5.77-3.47Z"/><path class="cls-1" d="M98.72,13V11.18h8.63V2.44H99.46V.65h17.62V2.44h-7.85v8.74h8.5V13h-8.5v6.4h-1.88V13Zm2.53-9.26a30.86,30.86,0,0,1,3.09,5.52l-1.6.86a32.7,32.7,0,0,0-3-5.43Zm15.34.76a33.72,33.72,0,0,1-3.15,5.77l-1.56-.91A36.71,36.71,0,0,0,115,3.66Z"/><path class="cls-1" d="M123.6,8.08l-.5-1.85,2-.15A48.46,48.46,0,0,0,129.2,0l1.51,1a38.11,38.11,0,0,1-3.22,5l10.74-.79a32.36,32.36,0,0,0-2.63-2.68L137,1.24a76,76,0,0,1,5.64,6.21l-1.46,1.14L139.7,6.8Zm3.52,11.22h-1.88V10.48q0-.63.63-.63h14a.56.56,0,0,1,.65.63V19.3h-1.87v-.93H127.12Zm11.51-2.72V11.91a.24.24,0,0,0-.26-.27h-11c-.2,0-.28.08-.25.27v4.67Z"/></svg>
