<?xml version="1.0" encoding="UTF-8"?>
<svg width="363px" height="136px" viewBox="0 0 363 136" version="1.1" xmlns="http://www.w3.org/2000/svg" xmlns:xlink="http://www.w3.org/1999/xlink">
    <!-- Generator: Sketch 49.3 (51167) - http://www.bohemiancoding.com/sketch -->
    <title>Page 1</title>
    <desc>Created with Sketch.</desc>
    <defs></defs>
    <g id="Page-1" stroke="none" stroke-width="1" fill="none" fill-rule="evenodd">
        <g>
            <path d="M165.8458,119.4839 C165.8458,128.2409 158.7728,135.3409 150.0158,135.3979 L149.8198,135.3979 C123.6338,135.3979 102.3868,114.3189 102.0778,88.2169 L102.0778,16.2539 C102.0778,7.4689 109.2068,0.3399 118.0198,0.3399 C126.8048,0.3399 133.9338,7.4689 133.9338,16.2539 L133.9338,39.9139 L150.0158,39.9139 C158.7728,39.9699 165.8458,47.0709 165.8458,55.8279 C165.8458,64.6129 158.7168,71.7419 149.9318,71.7419 L133.9338,71.7419 L133.9338,88.2169 C133.9338,95.9169 140.3498,103.5419 150.1568,103.5419 C158.8288,103.6539 165.8458,110.7549 165.8458,119.4839" id="Fill-1" fill="#FFFFFF"></path>
            <path d="M362.6514,42.6084 C361.0804,43.1704 344.8804,47.8544 335.5394,67.1104 C332.5424,73.2894 330.9354,78.5344 330.9354,85.8594 L330.9354,119.3154 C330.9354,126.9214 325.1084,135.2294 315.0224,135.2294 C306.2094,135.2294 299.0804,128.1004 299.0804,119.3154 C299.0804,119.3154 299.1084,101.3104 299.1084,85.8594 C299.1084,60.3294 321.0564,39.9144 346.8224,39.9144 C352.3794,39.9144 357.7124,40.8684 362.6514,42.6084" id="Fill-3" fill="#FFFFFF"></path>
            <path d="M38.0025,135.5518 C21.7975,135.5528 0.0005,124.7168 0.0275,110.7688 C0.0275,101.9838 7.1565,94.8548 15.9415,94.8548 C18.3275,94.8548 21.1305,95.3008 33.3155,101.0298 C43.2005,105.6778 48.3025,100.4968 50.2955,97.0728 C54.2145,88.8838 50.0965,83.8328 47.4325,82.0288 C41.6435,78.1058 35.2895,77.8748 26.7755,74.8438 C12.6705,69.8218 0.0005,56.7678 0.0005,40.0968 C0.0005,-10.7832 77.2685,-8.2832 77.2685,20.0568 C77.2685,28.8418 69.5055,37.7798 58.0855,35.5898 C56.0545,35.2008 45.7305,32.2088 42.3245,31.6768 C37.3805,30.9048 33.9175,33.9168 33.4745,37.1228 C30.6305,57.7168 84.4415,44.4668 84.4415,92.3418 C84.4415,113.1268 67.8805,135.5518 38.0025,135.5518" id="Fill-5" fill="#FFFFFF"></path>
            <path d="M286.0489,43.604 C283.3099,48.365 283.0979,54.409 286.0419,59.509 C288.9869,64.608 294.3259,67.447 299.8199,67.455 C302.5589,62.694 302.7709,56.649 299.8259,51.55 C296.8829,46.451 291.5419,43.612 286.0489,43.604" id="Fill-7" fill="#FFFFFF"></path>
            <path d="M243.3809,91.961 L228.1599,103.011 L212.9299,91.961 L212.9299,91.952 L218.7419,74.052 L237.5689,74.052 L243.3809,91.952 L243.3809,91.961 Z M275.7949,86 C274.9249,60.403 253.9019,39.914 228.0809,39.914 C201.7269,39.914 180.3669,61.301 180.3669,87.656 C180.3669,114.011 201.7269,135.398 228.0809,135.398 C235.4349,135.398 242.4229,133.742 248.6539,130.738 C251.5449,133.602 255.5299,135.398 259.9089,135.398 C268.6929,135.398 275.8229,128.269 275.8229,119.484 C275.8229,119.484 275.8229,86.533 275.7949,86 Z" id="Fill-9" fill="#FFFFFF"></path>
            <path d="M237.5596,74.0523 L218.7416,74.0523 L226.9726,48.7093 C227.3436,47.5693 228.9566,47.5693 229.3286,48.7093 L237.5596,74.0523 Z" id="Fill-11" fill="#EEC830"></path>
            <path d="M251.6114,117.2867 C251.9824,118.4277 250.6764,119.3757 249.7064,118.6707 L228.1604,103.0197 L228.1604,103.0107 L243.3814,91.9607 L251.6114,117.2867 Z" id="Fill-13" fill="#FC9344"></path>
            <path d="M218.7413,74.0523 L212.9293,91.9513 L212.9203,91.9513 L191.3723,76.2913 C190.4023,75.5863 190.9013,74.0523 192.1003,74.0523 L218.7413,74.0523 Z" id="Fill-15" fill="#50BAA2"></path>
            <path d="M228.1505,103.0201 L206.6035,118.6711 C205.6335,119.3761 204.3285,118.4271 204.6985,117.2871 L212.9295,91.9611 L228.1505,103.0201 Z" id="Fill-17" fill="#62C5EF"></path>
            <path d="M264.21,74.0523 C265.409,74.0523 265.908,75.5863 264.938,76.2913 L243.39,91.9513 L243.381,91.9513 L237.568,74.0523 L264.21,74.0523 Z" id="Fill-19" fill="#E14947"></path>
        </g>
    </g>
</svg>
